<svg version="1.1" id="Layer_1" xmlns="http://www.w3.org/2000/svg" xmlns:xlink="http://www.w3.org/1999/xlink" x="0px" y="0px"
	width="307.775px" height="255.882px" viewBox="0 0 307.775 255.882" enable-background="new 0 0 307.775 255.882"
	xml:space="preserve">
<g>
	<path fill="#CCCCCC" d="M194.565,145.324h-20.8c-3.7,0-6.801,1.199-9.4,3.898c-2.6,2.602-3.898,5.701-3.898,9.301v11.6
		c0,3.701,1.3,6.801,3.898,9.4c2.602,2.6,5.7,3.9,9.4,3.9h20.8c3.7,0,6.899-1.301,9.399-3.9c2.601-2.6,3.899-5.699,3.899-9.4v-11.6
		c0-3.6-1.3-6.699-3.899-9.301C201.464,146.523,198.265,145.324,194.565,145.324z"/>
	<path fill="#FFFFFF" d="M192.964,143.623h-16.799c-2.9,0-5.5,1.101-7.602,3.201c-2.1,2.1-3.1,4.6-3.1,7.5v9.299
		c0,3,1,5.601,3.1,7.601c2.102,2.101,4.7,3.101,7.602,3.101h16.799c2.899,0,5.399-1,7.5-3.101c2.101-2,3.101-4.601,3.101-7.601
		v-9.299c0-2.9-1-5.4-3.101-7.5C198.365,144.722,195.865,143.623,192.964,143.623z"/>
	<path fill="#CCCCCC" d="M80.365,145.324h-20.8c-3.6,0-6.8,1.199-9.4,3.898c-2.6,2.602-3.9,5.701-3.9,9.301v11.6
		c0,3.701,1.3,6.801,3.9,9.4s5.8,3.9,9.4,3.9h20.8c3.7,0,6.9-1.301,9.4-3.9c2.6-2.6,3.9-5.699,3.9-9.4v-11.6
		c0-3.6-1.3-6.699-3.9-9.301C87.265,146.523,84.065,145.324,80.365,145.324z"/>
	<path fill="#FFFFFF" d="M78.665,143.623h-16.7c-3,0-5.5,1.101-7.6,3.201c-2.1,2.1-3.1,4.6-3.1,7.5v9.299c0,3,1,5.601,3.1,7.601
		c2.1,2.101,4.6,3.101,7.6,3.101h16.7c3,0,5.5-1,7.6-3.101c2-2,3.1-4.601,3.1-7.601v-9.299c0-2.9-1.1-5.4-3.1-7.5
		C84.165,144.722,81.665,143.623,78.665,143.623z"/>
	<polygon fill="#333333" points="176.365,154.824 176.365,162.222 186.065,162.222 186.065,167.023 194.565,158.523 
		186.065,150.023 186.065,154.824 	"/>
	<polygon fill="#333333" points="79.065,162.222 79.065,154.722 69.365,154.722 69.365,149.923 60.865,158.523 69.365,166.923 
		69.365,162.222 	"/>
	<path fill="#CCCCCC" d="M194.964,195.123h-135.8c-3.7,0-6.8,1.201-9.4,3.9c-2.6,2.6-3.9,5.699-3.9,9.301v11.6
		c0,3.699,1.3,6.8,3.9,9.4c2.6,2.6,5.7,3.898,9.4,3.898h135.8c3.699,0,6.899-1.299,9.399-3.898c2.601-2.602,3.9-5.701,3.9-9.4v-11.6
		c0-3.602-1.302-6.701-3.9-9.301C201.865,196.324,198.666,195.123,194.964,195.123z"/>
	<path fill="#FFFFFF" d="M193.365,193.423h-131.8c-2.9,0-5.5,1.1-7.6,3.199c-2.1,2.1-3.1,4.6-3.1,7.5v9.301c0,3,1,5.6,3.1,7.6
		c2.1,2.1,4.7,3.1,7.6,3.1h131.8c2.9,0,5.4-1,7.5-3.1c2.1-2,3.1-4.6,3.1-7.6v-9.301c0-2.9-1-5.4-3.1-7.5
		C198.765,194.522,196.265,193.423,193.365,193.423z"/>

</g>
</svg>
